<svg width="34" height="48" viewBox="0 0 34 48" fill="none" xmlns="http://www.w3.org/2000/svg">
<path d="M17 1L17.3536 0.646447C17.1583 0.451184 16.8417 0.451184 16.6464 0.646447L17 1ZM17 1C16.6464 0.646447 16.6463 0.646584 16.6461 0.646783C16.646 0.646931 16.6457 0.647191 16.6454 0.647486C16.6448 0.648076 16.644 0.64891 16.6429 0.649986C16.6408 0.652138 16.6377 0.65526 16.6336 0.659342C16.6255 0.667508 16.6136 0.679518 16.598 0.695304C16.5669 0.726877 16.5211 0.773558 16.4616 0.834805C16.3427 0.957295 16.1689 1.13806 15.9482 1.37277C15.5069 1.84214 14.8776 2.52741 14.123 3.39383C12.6142 5.12612 10.602 7.58535 8.5889 10.4932C4.57817 16.2865 0.5 23.9499 0.5 31.2222H1.5C1.5 24.2724 5.42183 16.8247 9.4111 11.0624C11.398 8.19243 13.3858 5.76277 14.877 4.05061C15.6224 3.19481 16.2431 2.51897 16.6768 2.05779C16.8936 1.82721 17.0636 1.65034 17.179 1.53151C17.2367 1.4721 17.2807 1.4272 17.3102 1.39736C17.3249 1.38244 17.3359 1.37128 17.3432 1.36396C17.3468 1.3603 17.3495 1.35759 17.3513 1.35586C17.3521 1.35499 17.3527 1.35436 17.3531 1.35398C17.3533 1.35378 17.3534 1.35368 17.3535 1.35358C17.3536 1.35354 17.3536 1.35355 17 1ZM33.5 31.2222C33.5 23.9499 29.4218 16.2865 25.4111 10.4932C23.398 7.58535 21.3858 5.12612 19.877 3.39383C19.1224 2.52741 18.4931 1.84214 18.0518 1.37277C17.8311 1.13806 17.6573 0.957295 17.5384 0.834805C17.4789 0.773558 17.4331 0.726877 17.402 0.695304C17.3864 0.679518 17.3745 0.667508 17.3664 0.659342C17.3623 0.65526 17.3592 0.652138 17.3571 0.649986C17.356 0.64891 17.3552 0.648076 17.3546 0.647486C17.3543 0.647191 17.354 0.646931 17.3539 0.646783C17.3537 0.646584 17.3536 0.646447 17 1C16.6464 1.35355 16.6464 1.35354 16.6465 1.35358C16.6466 1.35368 16.6467 1.35378 16.6469 1.35398C16.6473 1.35436 16.6479 1.35499 16.6487 1.35586C16.6505 1.35759 16.6532 1.3603 16.6568 1.36396C16.6641 1.37128 16.6751 1.38244 16.6898 1.39736C16.7193 1.4272 16.7633 1.4721 16.821 1.53151C16.9364 1.65034 17.1064 1.82721 17.3232 2.05779C17.7569 2.51897 18.3776 3.19481 19.123 4.05061C20.6142 5.76277 22.602 8.19243 24.5889 11.0624C28.5782 16.8247 32.5 24.2724 32.5 31.2222H33.5ZM32.5 31.2222C32.5 39.7826 25.5604 46.7222 17 46.7222V47.7222C26.1127 47.7222 33.5 40.3349 33.5 31.2222H32.5ZM17 46.7222C8.43959 46.7222 1.5 39.7826 1.5 31.2222H0.5C0.5 40.3349 7.8873 47.7222 17 47.7222V46.7222Z" fill="#E12C2C"/>
</svg>
